<svg xmlns="http://www.w3.org/2000/svg" xmlns:xlink="http://www.w3.org/1999/xlink" version="1.1" width="1000" height="1000" viewBox="0 0 1000 1000" xml:space="preserve">
<desc>Created with Fabric.js 3.5.0</desc>
<defs>
</defs>
<rect x="0" y="0" width="100%" height="100%" fill="rgba(255,255,255,0)"/>
<g transform="matrix(2.0291 0 0 2.0291 499.9931 499.9925)" id="350628">
<path style="stroke: none; stroke-width: 1; stroke-dasharray: none; stroke-linecap: butt; stroke-dashoffset: 0; stroke-linejoin: miter; stroke-miterlimit: 4; is-custom-font: none; font-file-url: none; fill: rgb(255,255,255); fill-rule: nonzero; opacity: 1;" vector-effect="non-scaling-stroke" transform=" translate(-223.9853, -256.0096)" d="M 424 448 h -40 V 304 a 16 16 0 0 0 -16 -16 h -12 a 16 16 0 0 0 -13.57 7.52 l -20 32 A 16 16 0 0 0 336 352 h 16 v 96 h -40 a 8 8 0 0 0 -8 8 v 16 a 8 8 0 0 0 8 8 h 112 a 8 8 0 0 0 8 -8 v -16 a 8 8 0 0 0 -8 -8 z M 344.49 33.92 A 72 72 0 0 0 360 176.29 a 71.13 71.13 0 0 0 36.65 -10.37 c -8.84 31.22 -35.92 54.86 -69.08 58 a 8.08 8.08 0 0 0 -7.57 7.92 v 16.07 a 8 8 0 0 0 8.38 8.06 A 112.16 112.16 0 0 0 432 144.29 v -40 a 72.13 72.13 0 0 0 -87.51 -70.37 z M 360 144.29 a 40 40 0 1 1 40 -40 a 40 40 0 0 1 -40 40 z M 198.93 371.56 a 11.93 11.93 0 0 0 -16.91 -0.09 l -54 52.67 V 40 a 8 8 0 0 0 -8 -8 H 104 a 8 8 0 0 0 -8 8 v 383.92 l -53.94 -52.35 a 12 12 0 0 0 -16.92 0 l -5.64 5.66 a 12 12 0 0 0 0 17 l 84.06 82.3 a 11.94 11.94 0 0 0 16.87 0 l 84 -82.32 a 12 12 0 0 0 0.09 -17 z" stroke-linecap="round"/>
</g>
</svg>